<?xml version="1.0" standalone="no"?>
<!DOCTYPE svg PUBLIC "-//W3C//DTD SVG 1.1//EN" "http://www.w3.org/Graphics/SVG/1.1/DTD/svg11.dtd" >
<svg>
<metadata>
Created by FontForge 20120731 at Thu Aug 13 07:02:07 2015
 By root
Copyright \(c\) 2014 by Shelbie Copas. All rights reserved.
</metadata>
<defs>
<font id="Snollygoster" horiz-adv-x="500" >
  <font-face 
    font-family="Sprout"
    font-weight="400"
    font-stretch="normal"
    units-per-em="1000"
    panose-1="0 0 0 0 0 0 0 0 0 0"
    ascent="750"
    descent="-250"
    x-height="260"
    cap-height="624"
    bbox="-52.0998 -242.12 478.169 705.219"
    underline-thickness="50"
    underline-position="-50"
    stemh="40"
    stemv="40"
    unicode-range="U+0020-201D"
  />
<missing-glyph horiz-adv-x="287" 
 />
    <glyph glyph-name=".notdef" horiz-adv-x="287" 
 />
    <glyph glyph-name="h" unicode="h" horiz-adv-x="435" 
d="M78 26c0 -28 -40 -28 -40 0v574c0 28 40 28 40 0v-411c63 81 175 129 258 46c54 -54 66 -138 71 -210c-2 -28 -36 -29 -40 -1c-5 71 -18 170 -91 207c-73 39 -171 -47 -196 -115l-2 -5v-85z" />
    <glyph glyph-name="i" unicode="i" horiz-adv-x="163" 
d="M111 87c23 17 46 -6 29 -29c-14 -16 -24 -36 -42 -49c-34 -24 -60 14 -64 45c-11 81 -3 162 0 243c5 23 33 25 40 1c-3 -77 -22 -180 4 -253c13 12 22 28 33 42zM83 408c0 -3 -1 -5 -2 -8c-1 -7 -5 -14 -13 -17c-50 -24 -53 85 4 52c9 -7 12 -13 10 -22c1 -1 1 -3 1 -5z
" />
    <glyph glyph-name="n" unicode="n" horiz-adv-x="419" 
d="M73 31c0 -28 -40 -28 -40 0v224c0 28 40 28 40 0v-61c63 81 175 129 258 46c54 -54 66 -138 71 -210c-2 -28 -36 -29 -40 -1c-5 71 -18 170 -91 207c-73 39 -171 -47 -196 -115l-2 -5v-85z" />
    <glyph glyph-name="o" unicode="o" horiz-adv-x="337" 
d="M295 48c-74 -49 -134 -60 -221 -17c-80 41 -98 188 -16 234c104 57 224 19 269 -101c14 -31 -4 -94 -32 -116zM134 48c45 -9 89 -21 133 21c45 44 20 124 -26 155c-36 24 -71 28 -114 22c-126 -15 -94 -179 7 -198z" />
    <glyph glyph-name="j" unicode="j" horiz-adv-x="223" 
d="M171 152l-6 -310c0 -14 -15 -36 -14 -36c-72 -48 -135 96 -142 158c5 23 33 25 40 1c5 -36 49 -150 73 -127l9 11v212c-1 31 -1 62 0 93c2 24 36 25 39 2c0 -1 1 -1 1 -1v-3zM180 265c0 -3 -1 -5 -2 -8c-1 -7 -5 -14 -13 -17c-50 -24 -53 85 4 52c9 -7 12 -13 10 -22
c1 -1 1 -3 1 -5z" />
    <glyph glyph-name="k" unicode="k" horiz-adv-x="340" 
d="M78 26c0 -28 -40 -28 -40 0v578c0 28 40 28 40 0v-373c3 0 5 1 7 1c38 5 52 62 55 96c6 27 42 23 39 -5c-2 -15 -7 -53 -14 -69c67 4 143 -48 152 -229c1 -28 -36 -29 -40 -1c20 161 -125 288 -197 92l-2 -5v-85z" />
    <glyph glyph-name="I" unicode="I" horiz-adv-x="258" 
d="M35 584c-28 0 -28 40 0 40h195c28 0 28 -40 0 -40h-78v-540h78c28 0 28 -40 0 -40h-195c-28 0 -28 40 0 40h77v540h-77z" />
    <glyph glyph-name="p" unicode="p" horiz-adv-x="346" 
d="M54 -191c0 -28 -40 -28 -40 0v474c0 28 40 28 40 0v-38c54 71 145 96 219 34c71 -59 76 -177 9 -238c-72 -66 -219 -32 -232 59zM278 89c34 57 7 147 -45 173c-127 45 -209 -89 -126 -187c41 -48 137 -39 171 14z" />
    <glyph glyph-name="q" unicode="q" horiz-adv-x="391" 
d="M62 41c-67 61 -62 179 9 238c74 62 165 37 219 -34v38c0 28 40 28 40 0v-402l10 14c17 22 45 5 35 -21c-18 -21 -27 -48 -45 -68c-2 -23 -35 -24 -39 -2c-3 5 -4 12 -1 19l4 277c-13 -91 -160 -125 -232 -59zM66 89c34 -53 130 -62 171 -14c83 98 1 232 -126 187
c-52 -26 -79 -116 -45 -173z" />
    <glyph glyph-name="r" unicode="r" horiz-adv-x="351" 
d="M54 36c0 -28 -40 -28 -40 0v224c0 28 40 28 40 0v-61c69 142 289 112 269 -54c-2 -28 -36 -29 -40 -1c7 176 -180 130 -227 2l-2 -5v-105z" />
    <glyph glyph-name="s" unicode="s" horiz-adv-x="272" 
d="M231 224c-12 -30 -41 -7 -36 28c-63 35 -138 14 -127 -49c5 -31 150 5 159 -77c11 -114 -107 -132 -168 -90c-11 7 -17 19 -27 28c-5 55 27 19 50 0c28 -19 128 -28 113 54c-19 65 -169 -20 -162 103c1 15 9 36 20 46c26 23 36 27 70 35c46 11 130 -16 108 -78z" />
    <glyph glyph-name="S" unicode="S" 
d="M69 94c19 14 43 1 33 -23c-1 -1 -6 14 -4 11c91 -75 357 -71 284 105c-30 36 -94 40 -136 50c-80 22 -188 69 -185 168c4 108 201 284 294 191c37 -37 34 -66 41 -117c-2 -28 -36 -29 -40 -1c-5 37 -1 62 -29 89c-66 63 -236 -88 -225 -174c20 -164 315 -76 333 -230
c20 -157 -152 -184 -264 -156c-30 8 -136 35 -102 87z" />
    <glyph glyph-name="T" unicode="T" horiz-adv-x="386" 
d="M220 31c0 -28 -40 -28 -40 0v544h-148c-28 0 -28 40 0 40h319c28 0 28 -40 0 -40h-131v-544z" />
    <glyph glyph-name="t" unicode="t" horiz-adv-x="244" 
d="M131 7c-12 2 -19 9 -20 16c-4 4 -6 9 -6 16l-3 211c-15 -1 -80 -13 -92 -1c1 0 1 -1 2 -1c-13 13 -9 29 7 36c14 5 30 2 44 3l38 4l-4 308c0 28 40 28 40 0l4 -304c22 2 45 4 67 5c24 -7 22 -35 -1 -40c-22 -1 -44 -3 -65 -5l3 -199c14 12 24 32 31 46c14 25 47 8 36 -17
c-17 -35 -41 -70 -81 -78z" />
    <glyph glyph-name="u" unicode="u" 
d="M387 258c0 28 40 28 40 0v-224c0 -28 -40 -28 -40 0v61c-63 -81 -175 -129 -258 -46c-54 54 -66 138 -71 210c2 28 36 29 40 1c5 -71 18 -170 91 -207c73 -39 171 47 196 115l2 5v85z" />
    <glyph glyph-name="U" unicode="U" 
d="M387 550c0 28 40 28 40 0v-514c0 -28 -40 -28 -40 0v61c-63 -81 -175 -129 -258 -46c-54 54 -66 428 -71 500c2 28 36 29 40 1c5 -71 18 -460 91 -497c73 -39 171 47 196 115l2 5v375z" />
    <glyph glyph-name="N" unicode="N" horiz-adv-x="392" 
d="M386 32c-2 -25 -27 -34 -39 -9c-4 17 -7 34 -9 52c-50 119 -174 287 -255 403c-4 -82 -11 -167 -19 -247c1 11 1 22 1 17c-6 -71 -10 -151 -11 -222c-3 -30 -36 -31 -41 -1c4 179 30 380 34 559c7 25 32 27 41 1c-1 -14 -1 -27 -1 -41c3 -1 6 -4 9 -7
c55 -60 171 -245 235 -371c0 15 -1 30 -1 44c-2 125 0 266 2 391c6 25 31 27 40 1c-1 -125 -3 -265 -1 -390c3 -57 1 -124 15 -180zM63 219c0 -4 1 4 1 12c0 -4 -1 -8 -1 -12z" />
    <glyph glyph-name="J" unicode="J" horiz-adv-x="263" 
d="M226 622c28 0 28 -40 0 -40h-38l-6 -533c0 -14 -15 -36 -14 -36c-72 -48 -135 96 -142 158c5 23 33 25 40 1c5 -36 49 -150 73 -127l9 11v452c-1 24 -1 49 -1 74h-49c-28 0 -28 40 0 40h128z" />
    <glyph glyph-name="O" unicode="O" 
d="M424 99c-83 -147 -327 -103 -375 65c-51 182 102 419 291 315c125 -64 147 -267 84 -380zM124 113c69 -80 207 -77 263 10c69 110 22 317 -122 324c-167 11 -243 -209 -141 -334z" />
    <glyph glyph-name="Q" unicode="Q" 
d="M424 99c-20 -35 -48 -58 -81 -73c2 -9 5 -18 8 -26c7 -21 12 -26 24 -36c13 6 28 -4 27 -22c-12 -45 -62 -9 -77 16c-10 17 -16 36 -20 56c-102 -21 -224 36 -256 150c-51 182 102 419 291 315c125 -64 147 -267 84 -380zM124 113c43 -51 114 -68 175 -52
c-1 19 -1 39 -1 58c5 23 33 25 40 1c0 -14 -1 -29 0 -43c19 11 36 26 49 46c69 110 22 317 -122 324c-167 11 -243 -209 -141 -334zM383 -43l-1 1z" />
    <glyph glyph-name="K" unicode="K" 
d="M78 26c0 -28 -40 -28 -40 0v578c0 28 40 28 40 0v-390c155 62 161 262 161 393c5 23 33 25 40 1c7 -86 -21 -302 -64 -359c108 28 159 -133 152 -224c-2 -28 -36 -29 -40 -1c20 161 -175 288 -247 92l-2 -5v-85z" />
    <glyph glyph-name="R" unicode="R" horiz-adv-x="470" 
d="M66 30c0 -28 -40 -28 -40 0v153c-6 7 -6 16 0 23v380c0 20 22 26 33 16c140 46 434 -1 324 -202c-27 -48 -65 -89 -109 -122c123 15 174 -131 160 -243c-2 -28 -36 -29 -40 -1c18 233 -190 236 -328 122v-126zM369 474c15 120 -232 103 -303 89v-324c10 2 21 4 31 8
c92 31 259 122 272 227z" />
    <glyph glyph-name="P" unicode="P" horiz-adv-x="361" 
d="M78 29c0 -28 -40 -28 -40 0v564c0 28 40 28 40 0v-38c54 71 145 96 219 34c71 -59 76 -177 9 -238c-72 -66 -219 -32 -232 59zM302 399c34 57 7 147 -45 173c-127 45 -209 -89 -126 -187c41 -48 137 -39 171 14z" />
    <glyph glyph-name="l" unicode="l" horiz-adv-x="167" 
d="M112 33c-4 -22 -32 -28 -40 -4c-15 216 4 353 -20 568c-2 29 34 32 39 5c24 -215 5 -352 21 -569z" />
    <glyph glyph-name="L" unicode="L" horiz-adv-x="353" 
d="M58 589c23 -208 6 -325 19 -535c80 -18 162 -1 242 6c28 3 28 -34 1 -40c-86 -8 -166 -6 -253 -6c-10 -5 -23 0 -28 15c-15 216 4 340 -20 555c-2 29 34 32 39 5z" />
    <glyph glyph-name="m" unicode="m" horiz-adv-x="462" 
d="M73 22c0 -28 -40 -28 -40 0v233c0 28 40 28 40 0v-31c34 31 128 62 158 11c154 84 212 -24 203 -208c-2 -28 -39 -32 -43 -4c0 40 6 184 -51 193c-41 7 -59 -1 -89 -22c8 -42 0 -131 0 -170c-2 -28 -36 -29 -40 -1c0 40 16 184 -41 193c-37 6 -71 -24 -97 -45v-149z" />
    <glyph glyph-name="v" unicode="v" horiz-adv-x="360" 
d="M59 287c34 -74 78 -173 127 -239c69 49 105 165 118 241c6 27 42 23 39 -5c-17 -92 -87 -292 -183 -267c-52 70 -100 170 -137 250c-9 26 19 43 36 20z" />
    <glyph glyph-name="V" unicode="V" horiz-adv-x="410" 
d="M59 583c40 -86 78 -459 136 -536c81 58 135 450 150 538c7 32 49 28 45 -5c-20 -108 -101 -598 -214 -569c-61 81 -116 456 -159 549c-11 31 22 50 42 23z" />
    <glyph glyph-name="w" unicode="w" 
d="M260 264c26 -73 60 -131 98 -197c53 49 71 144 81 219c4 27 42 23 39 -5c-12 -91 -67 -289 -140 -264c-34 57 -65 116 -91 186c-22 -98 -69 -206 -129 -186c-39 69 -77 168 -105 247c-7 26 25 43 37 20c26 -73 51 -141 88 -207c53 49 81 114 91 189c3 25 27 23 29 1
c0 -1 1 -2 2 -3z" />
    <glyph glyph-name="M" unicode="M" horiz-adv-x="486" 
d="M56 34c-2 -28 -36 -29 -40 -1c-1 51 7 101 7 151c0 103 39 325 96 407c6 5 10 7 18 7s17 -1 25 -1c8 -2 11 -5 15 -11c21 -50 41 -132 55 -186c17 47 43 92 71 136c19 30 64 100 97 52c30 -42 31 -121 39 -168c19 -117 25 -274 26 -393c-2 -28 -36 -29 -40 -1
c-1 113 -10 258 -25 375v1c-8 46 -7 110 -32 151c-34 -17 -100 -159 -111 -194c-5 -17 -8 -33 -9 -49l2 -25c-1 -9 -4 -15 -9 -18c-10 -13 -32 -9 -35 13c0 9 1 18 2 26c-8 76 -32 163 -62 232h-2c-32 -49 -38 -112 -54 -168c-30 -111 -26 -222 -34 -336z" />
    <glyph glyph-name="W" unicode="W" horiz-adv-x="478" 
d="M420 576c2 28 36 29 40 1c1 -51 -7 -101 -7 -151c0 -103 -39 -325 -96 -407c-6 -5 -10 -7 -18 -7s-17 1 -25 1c-8 2 -11 5 -15 11c-21 50 -41 132 -55 186c-17 -47 -43 -92 -71 -136c-19 -30 -64 -100 -97 -52c-30 42 -31 121 -39 168c-19 117 -25 274 -26 393
c2 28 36 29 40 1c1 -113 10 -258 25 -375v-1c8 -46 7 -110 32 -151c34 17 100 159 111 194c5 17 8 33 9 49l-2 25c1 9 4 15 9 18c10 13 32 9 35 -13c0 -9 -1 -18 -2 -26c8 -76 32 -163 62 -232h2c32 49 38 112 54 168c30 111 26 222 34 336z" />
    <glyph glyph-name="d" unicode="d" horiz-adv-x="358" 
d="M293 222l-4 381c0 28 40 28 40 0v-564c0 -28 -40 -28 -40 0v38c-54 -71 -145 -96 -219 -34c-71 59 -76 177 -9 238c72 66 219 32 232 -59zM65 233c-34 -57 -7 -147 45 -173c127 -45 209 89 126 187c-41 48 -137 39 -171 -14z" />
    <glyph glyph-name="b" unicode="b" horiz-adv-x="361" 
d="M54 603l-4 -381c13 91 160 125 232 59c67 -61 62 -179 -9 -238c-74 -62 -165 -37 -219 34v-38c0 -28 -40 -28 -40 0v564c0 28 40 28 40 0zM278 233c-34 53 -130 62 -171 14c-83 -98 -1 -232 126 -187c52 26 79 116 45 173z" />
    <glyph glyph-name="a" unicode="a" horiz-adv-x="378" 
d="M284 72c-49 -84 -200 -92 -249 -3c-60 88 -1 215 98 238c23 5 45 -1 68 -3c22 -2 41 -18 61 -29c10 -6 18 -12 24 -20l3 14c7 28 45 24 42 -6c-3 -19 -4 -37 -7 -57c0 -44 5 -165 37 -193c13 0 24 -13 17 -31l-2 -3c-7 -12 -17 -12 -30 -8c-32 19 -49 60 -58 108zM71 93
c117 -144 303 117 121 168c-92 26 -179 -84 -121 -168z" />
    <glyph glyph-name="g" unicode="g" horiz-adv-x="365" 
d="M97 -94c-9 -88 118 -167 179 -69c5 8 17 17 16 263c-13 -91 -160 -125 -232 -59c-67 61 -62 179 9 238c74 62 165 37 219 -34v38c0 28 40 28 40 0c0 -170 21 -377 -19 -469c-51 -117 -261 -33 -251 87c-3 28 42 33 39 5zM64 89c34 -53 130 -62 171 -14
c83 98 1 232 -126 187c-52 -26 -79 -116 -45 -173z" />
    <glyph glyph-name="c" unicode="c" horiz-adv-x="239" 
d="M196 73c26 5 34 -21 17 -37c-102 -60 -215 30 -192 140c14 65 104 154 178 150c28 -3 25 -39 -2 -40c-49 3 -127 -76 -136 -118c-20 -79 64 -140 135 -95z" />
    <glyph glyph-name="f" unicode="f" horiz-adv-x="280" 
d="M73 25c0 -28 -40 -28 -40 0v252c-11 -7 -26 0 -29 18v3c3 11 6 14 16 18c4 0 8 1 13 1v30v2v114v2v108c0 28 40 28 40 0v-61c92 190 276 -2 252 -147c-2 -28 -26 -29 -30 -1c-5 71 -28 140 -101 177c-68 24 -94 -34 -121 -107v-85v-2v-28c49 0 106 -3 111 -3
c24 -7 22 -35 -1 -40c-37 0 -74 4 -110 4v-255z" />
    <glyph glyph-name="e" unicode="e" horiz-adv-x="312" 
d="M263 123c12 22 40 13 38 -11c-4 -15 -6 -30 -14 -44c-57 -101 -272 -73 -276 82c-3 119 252 290 276 63c-5 -13 -15 -17 -24 -15c-70 -24 -140 -40 -211 -61c18 -96 156 -119 201 -47c7 10 7 22 10 33zM245 234c-26 102 -159 19 -189 -55c63 19 127 34 189 55z" />
    <glyph glyph-name="z" unicode="z" horiz-adv-x="296" 
d="M25 270c-21 16 -10 47 13 46c66 -27 108 -11 202 -1l8 2c8 0 12 -1 17 -9c20 -31 -16 -63 -33 -83c-46 -49 -121 -105 -164 -161c66 5 170 2 198 -3c23 -12 17 -46 -6 -48c-63 11 -131 25 -194 13c-8 -1 -16 -4 -23 -7c-13 -16 -33 -5 -34 20c18 64 162 182 206 230
c-52 -8 -136 -21 -190 1z" />
    <glyph glyph-name="y" unicode="y" horiz-adv-x="370" 
d="M48 -178c-10 26 18 43 35 21c5 -10 25 -17 34 -23c73 -42 154 19 184 85c16 37 22 97 21 138c-12 -8 -24 -14 -43 -22c-83 -32 -228 -35 -259 72c-16 55 3 107 9 161c6 27 42 23 39 -5c-6 -58 -29 -104 -11 -141c52 -104 185 -73 262 -16c-6 60 -18 121 -21 175
c5 23 33 25 40 1c5 -137 52 -295 -29 -426c-48 -77 -149 -94 -223 -50c-13 8 -31 16 -38 30z" />
    <glyph glyph-name="x" unicode="x" horiz-adv-x="332" 
d="M66 36c-7 -30 -35 -19 -30 12c7 36 47 66 106 125l-34 38c-26 30 -52 62 -82 83c-14 20 -3 47 17 39c30 -21 56 -54 81 -82l44 -49c20 23 39 46 58 70c10 11 49 65 59 61l3 -2c8 -9 11 -19 7 -32c-7 -21 -57 -77 -101 -125c37 -38 76 -74 117 -98c18 -19 4 -51 -17 -39
c-45 26 -87 66 -126 108l-42 -45c-3 -3 -60 -61 -60 -64z" />
    <glyph glyph-name="X" unicode="X" horiz-adv-x="408" 
d="M390 46c8 -23 -15 -38 -34 -22c-48 75 -94 141 -139 205c-51 -75 -108 -148 -170 -212c-20 -12 -40 6 -30 28c63 65 122 140 175 218c-59 82 -119 162 -181 257c-11 25 16 43 34 22c59 -89 115 -166 171 -243c54 84 102 172 148 258c18 14 43 2 34 -22
c-48 -91 -101 -182 -158 -270c50 -69 99 -139 150 -219z" />
    <glyph glyph-name="B" unicode="B" horiz-adv-x="368" 
d="M25 595c0 19 19 25 31 18h3c84 -4 174 -46 217 -113c45 -69 2 -133 -66 -170c82 -13 186 -116 132 -213c-56 -103 -176 -93 -279 -97c-1 0 -3 0 -4 1c-11 -11 -34 -7 -34 15v559zM75 303l-10 -3v-241c45 4 79 2 122 10c65 13 179 70 114 149c-51 61 -103 76 -176 84
c-18 -3 -33 -5 -50 1zM246 445c5 70 -114 123 -181 128v-222c1 0 3 -1 5 -1c61 -28 172 26 176 95z" />
    <glyph glyph-name="C" unicode="C" horiz-adv-x="398" 
d="M303 107c17 23 10 54 44 53l5 -4c8 -7 11 -11 10 -22c-4 -21 -16 -38 -30 -56c-54 -68 -134 -111 -217 -56c-61 40 -81 114 -94 181c-22 120 107 445 270 360c58 -30 69 -124 83 -173c-2 -23 -29 -31 -39 -8c-9 33 -14 68 -28 99c-42 95 -118 47 -165 -11
c-67 -84 -102 -202 -73 -308c11 -38 33 -84 68 -107c67 -43 127 0 166 52z" />
    <glyph glyph-name="D" unicode="D" horiz-adv-x="417" 
d="M31 587c0 17 14 23 26 20c142 -30 327 -105 338 -276c4 -67 -11 -158 -59 -207c-72 -73 -184 -92 -281 -106h-1c-12 -4 -27 2 -27 20zM355 328c-10 143 -164 205 -284 235l-4 -504c165 26 303 69 288 269z" />
    <glyph glyph-name="E" unicode="E" horiz-adv-x="340" 
d="M11 580c0 26 34 28 39 6c86 0 173 5 258 5c24 -7 22 -35 -1 -40c-86 0 -171 -5 -256 -5v-210c63 0 124 -2 186 -2c24 -7 22 -35 -1 -40c-62 0 -124 2 -185 2v-233c86 0 172 5 257 5c24 -7 22 -35 -1 -40c-88 0 -174 -5 -262 -5c-11 -11 -34 -7 -34 15v542z" />
    <glyph glyph-name="F" unicode="F" horiz-adv-x="269" 
d="M45 38c0 -28 -40 -28 -40 0v542c0 26 34 28 39 6c86 0 173 5 258 5c24 -7 22 -35 -1 -40c-86 0 -171 -5 -256 -5v-210c63 0 124 -2 186 -2c24 -7 22 -35 -1 -40c-62 0 -124 2 -185 2v-258z" />
    <glyph glyph-name="Z" unicode="Z" horiz-adv-x="474" 
d="M32 563c-28 0 -28 40 0 40l393 4c20 0 26 -21 17 -33c1 -3 2 -7 2 -12c-81 -199 -243 -336 -374 -501l366 12c28 1 30 -39 2 -40l-392 -13c-21 -1 -27 20 -18 32c-3 6 -3 14 1 22c127 164 293 298 374 493z" />
    <glyph glyph-name="exclam" unicode="!" horiz-adv-x="109" 
d="M23 104v1c4 84 9 167 5 251c-3 81 -2 132 -4 213c5 23 33 25 40 1c2 -81 1 -131 4 -213c4 -85 0 -170 -5 -255c-2 -27 -33 -29 -39 -6h-1v3v1v4zM60 32c-2 -28 -36 -29 -40 -1v3c5 23 33 25 40 1v-3z" />
    <glyph glyph-name="quotedbl" unicode="&#x22;" horiz-adv-x="162" 
d="M11 595c20 29 41 57 61 85c17 22 45 5 35 -21c-21 -28 -42 -56 -61 -85c-18 -17 -42 -3 -35 21zM41 535c20 29 41 57 61 85c17 22 45 5 35 -21c-21 -28 -42 -56 -61 -85c-18 -17 -42 -3 -35 21z" />
    <glyph glyph-name="space" unicode=" " horiz-adv-x="287" 
 />
    <glyph glyph-name="hungarumlaut" unicode="&#x2dd;" 
 />
    <glyph glyph-name="quotedblleft" unicode="&#x201c;" horiz-adv-x="182" 
d="M156 595c7 -24 -17 -38 -35 -21c-19 29 -40 57 -61 85c-10 26 18 43 35 21c20 -28 41 -56 61 -85zM126 535c7 -24 -17 -38 -35 -21c-19 29 -40 57 -61 85c-10 26 18 43 35 21c20 -28 41 -56 61 -85z" />
    <glyph glyph-name="quotedblright" unicode="&#x201d;" horiz-adv-x="162" 
d="M11 595c20 29 41 57 61 85c17 22 45 5 35 -21c-21 -28 -42 -56 -61 -85c-18 -17 -42 -3 -35 21zM41 535c20 29 41 57 61 85c17 22 45 5 35 -21c-21 -28 -42 -56 -61 -85c-18 -17 -42 -3 -35 21z" />
    <glyph glyph-name="quoteright" unicode="&#x2019;" horiz-adv-x="134" 
d="M111 595c7 -24 -17 -38 -35 -21c-19 29 -40 57 -61 85c-10 26 18 43 35 21c20 -28 41 -56 61 -85z" />
    <glyph glyph-name="quoteleft" unicode="&#x2018;" horiz-adv-x="129" 
d="M12 595c20 29 41 57 61 85c17 22 45 5 35 -21c-21 -28 -42 -56 -61 -85c-18 -17 -42 -3 -35 21z" />
    <glyph glyph-name="asterisk" unicode="*" horiz-adv-x="218" 
d="M46 421c-24 -14 -46 11 -24 29c19 16 39 32 56 48c1 1 1 2 1 3c-14 12 -29 23 -44 28c-25 13 -13 41 14 36c11 -5 21 -10 31 -17c1 18 5 35 12 53c12 21 38 11 39 -10c-6 -18 -10 -36 -11 -55c16 14 31 29 49 42c24 9 40 -11 25 -29c-21 -16 -41 -33 -59 -51
c12 -13 25 -28 36 -40c16 -21 -9 -41 -31 -23c-5 5 -11 12 -17 19c1 -17 2 -34 1 -51c-10 -20 -38 -17 -43 4c1 14 1 29 0 43c-10 -10 -22 -20 -35 -29z" />
    <glyph glyph-name="quotesingle" unicode="'" horiz-adv-x="129" 
d="M17 595c20 29 41 57 61 85c17 22 45 5 35 -21c-21 -28 -42 -56 -61 -85c-18 -17 -42 -3 -35 21z" />
    <glyph glyph-name="quotesinglbase" unicode="&#x201a;" horiz-adv-x="121" 
d="M11 -45c20 29 41 57 61 85c17 22 45 5 35 -21c-21 -28 -42 -56 -61 -85c-18 -17 -42 -3 -35 21z" />
    <glyph glyph-name="comma" unicode="," horiz-adv-x="129" 
d="M11 -45c20 29 41 57 61 85c17 22 45 5 35 -21c-21 -28 -42 -56 -61 -85c-18 -17 -42 -3 -35 21z" />
    <glyph glyph-name="period" unicode="." horiz-adv-x="89" 
d="M65 51c-2 -28 -36 -29 -40 -1v4c5 23 33 25 40 1v-4z" />
    <glyph glyph-name="dollar" unicode="$" horiz-adv-x="417" 
d="M254 13c2 -28 -38 -30 -40 -2l-2 33c-30 0 -59 3 -85 9c-31 6 -141 29 -106 73c18 11 40 2 37 -14c37 -22 96 -35 152 -35l-11 171c-82 20 -189 60 -186 142c2 56 83 136 167 168l-2 32c-2 28 38 30 40 2l1 -22c37 7 72 3 99 -19c39 -31 36 -56 43 -99
c-2 -24 -38 -24 -42 -1c-5 32 -1 53 -30 76c-17 13 -42 15 -68 9l16 -259c79 -14 155 -29 164 -92c14 -90 -62 -130 -149 -139zM56 379c8 -60 71 -80 141 -94l-15 237c-68 -31 -134 -98 -126 -143zM346 205c-24 23 -68 30 -107 36l11 -162c78 9 136 47 96 126z" />
    <glyph glyph-name="ampersand" unicode="&#x26;" horiz-adv-x="255" 
d="M55 423c-14 -18 -39 -5 -34 15c4 9 7 18 13 24c43 43 161 -10 168 -71c3 -27 -22 -53 -46 -71c11 0 22 -2 32 -7c47 -20 80 -79 30 -116c-51 -38 -121 -52 -186 -52c-27 4 -26 34 1 36c50 0 100 8 142 31c35 18 39 55 -3 69c-32 10 -65 -7 -97 -3c-8 1 -12 3 -18 7
c-21 45 33 30 53 46c14 12 30 21 42 35c44 48 -50 80 -90 70zM113 523c-2 -25 -35 -26 -39 -1c0 19 -4 38 -4 57c5 20 32 22 39 1c0 -19 4 -37 4 -57zM149 36c-2 -25 -35 -26 -39 -1c0 15 5 30 -5 42c-10 23 17 38 34 19c14 -18 10 -39 10 -60z" />
    <glyph glyph-name="parenleft" unicode="(" horiz-adv-x="182" 
d="M138 7c7 -28 -17 -44 -35 -25c-121 137 -110 377 -57 540c26 76 41 98 79 164c19 16 44 1 34 -27c-112 -190 -172 -460 -21 -652z" />
    <glyph glyph-name="parenright" unicode=")" horiz-adv-x="190" 
d="M43 7c151 192 91 462 -21 652c-10 28 15 43 34 27c38 -66 53 -88 79 -164c53 -163 64 -403 -57 -540c-18 -19 -42 -3 -35 25z" />
    <glyph glyph-name="slash" unicode="/" horiz-adv-x="231" 
d="M51 -42c-8 -27 -46 -15 -38 12l207 720c8 27 46 15 38 -12z" />
    <glyph glyph-name="nine" unicode="9" horiz-adv-x="340" 
d="M289 29l4 381c-13 -91 -160 -125 -232 -59c-67 61 -62 179 9 238c74 62 165 37 219 -34v38c0 28 40 28 40 0v-564c0 -28 -40 -28 -40 0zM65 399c34 -53 130 -62 171 -14c83 98 1 232 -126 187c-52 -26 -79 -116 -45 -173z" />
    <glyph glyph-name="three" unicode="3" horiz-adv-x="287" 
d="M40 576c-30 5 -29 41 1 43c58 -7 124 -13 162 -68c60 -87 48 -176 -38 -227c31 -20 69 -33 89 -65c80 -133 -62 -234 -208 -250c-26 4 -30 32 -5 42c110 12 244 79 175 185c-22 38 -76 48 -108 79c-4 13 -4 22 8 31l35 18c11 11 23 21 32 33c39 53 4 125 -46 156
c-30 20 -61 18 -97 23z" />
    <glyph glyph-name="one" unicode="1" horiz-adv-x="190" 
d="M101 584c3 2 6 4 9 5v9c-1 28 39 30 40 2l20 -564c1 -28 -39 -30 -40 -2l-18 498c-19 -19 -43 -32 -67 -50c-24 -13 -46 16 -23 33c31 23 61 35 79 69z" />
    <glyph glyph-name="two" unicode="2" horiz-adv-x="352" 
d="M28 491c-11 -27 -42 -20 -45 8c31 127 168 136 251 47c24 -26 34 -61 43 -94c36 -133 -43 -300 -145 -388c100 12 115 5 180 3c27 -9 24 -33 -3 -38c-118 -2 -148 0 -269 0h-2h-2v1c-24 8 -25 35 1 46c34 3 32 4 60 22c118 74 197 299 101 416c-54 64 -147 62 -170 -23z
" />
    <glyph glyph-name="four" unicode="4" horiz-adv-x="373" 
d="M350 286c27 -8 20 -43 -8 -39c-29 5 -57 7 -86 7l7 -225c1 -28 -39 -30 -40 -2l-7 226c-56 -3 -112 -10 -169 -13l-1 -1c-14 -7 -26 -2 -31 8c-9 11 -5 28 11 32c84 98 134 210 171 334c8 15 24 15 33 6c8 -1 16 -8 17 -20l8 -306c32 0 63 -2 95 -7zM82 282
c45 3 89 8 133 10l-6 230c-31 -86 -71 -167 -127 -240z" />
    <glyph glyph-name="six" unicode="6" horiz-adv-x="291" 
d="M39 598c5 23 33 25 40 1c-3 -72 -8 -165 -15 -238v3c-7 -86 -15 -175 1 -261c14 37 35 84 72 105c52 30 133 2 140 -62c13 -89 -78 -136 -159 -137c-22 -1 -51 -5 -68 14c-44 48 -33 222 -30 278c5 92 16 204 19 297zM90 51l-2 -4c10 -1 23 2 31 2c27 1 128 10 117 92
c-4 35 -50 49 -78 33c-38 -22 -54 -86 -68 -123zM66 393c0 -3 -1 -6 -1 -9c1 7 1 13 1 9z" />
    <glyph glyph-name="seven" unicode="7" horiz-adv-x="318" 
d="M272 608l1 -1c13 4 29 -4 27 -22l-86 -561c-4 -27 -44 -21 -40 6l82 537c-50 -2 -99 -10 -149 -8c-18 1 -37 3 -56 6c-1 -11 -3 -25 -1 -27c7 -24 -17 -38 -35 -21c-8 14 -4 27 -5 42c-2 39 2 69 49 45c103 -15 122 2 213 4z" />
    <glyph glyph-name="zero" unicode="0" horiz-adv-x="361" 
d="M165 594c283 30 222 -747 -77 -559c-116 73 -112 515 77 559zM91 463c-186 -485 305 -601 194 -37c-25 125 -127 195 -194 37z" />
    <glyph glyph-name="eight" unicode="8" horiz-adv-x="364" 
d="M324 98c-45 -85 -177 -128 -248 -64c-42 29 -85 139 -60 193c17 39 34 83 71 103c-69 60 -88 215 1 242c64 17 103 13 161 -22c69 -41 53 -155 -1 -200c-1 0 -1 -1 -1 -1c10 -2 20 -5 28 -11c82 -47 89 -160 49 -240zM76 261c-46 -51 -28 -193 39 -205
c71 -3 130 -5 175 67c48 75 5 189 -82 188c-51 0 -96 -9 -132 -50zM103 531c-61 -32 -36 -139 15 -171c3 2 7 3 13 5c35 1 79 1 105 31c74 88 -57 176 -133 135z" />
    <glyph glyph-name="five" unicode="5" horiz-adv-x="332" 
d="M25 528c0 3 0 5 1 8c-6 13 1 32 19 32l235 4c28 0 28 -44 0 -44l-215 -5v-160v-3c109 9 255 -75 260 -204l-20 -54c-35 -105 -211 -108 -282 -64c-23 11 -15 41 8 43c26 -9 51 -21 77 -25c22 -4 44 -1 66 3c19 4 38 12 55 22c137 88 -10 212 -104 231
c-66 10 -100 -28 -100 51v165z" />
    <glyph glyph-name="Y" unicode="Y" horiz-adv-x="421" 
d="M193 12c-24 4 -28 30 -5 39c44 8 70 4 104 34c54 47 67 133 70 215c-103 -3 -293 -26 -324 111l-14 71c-7 35 -4 71 -6 106c5 23 33 25 40 1c2 -33 1 -66 5 -99c20 -188 153 -154 299 -150v82c0 59 -3 131 -6 165c-2 6 -2 13 2 21l2 2c15 11 30 8 35 -11
c14 -85 8 -151 7 -237c-1 -118 -3 -288 -137 -338c-22 -9 -48 -8 -72 -12z" />
    <glyph glyph-name="G" unicode="G" horiz-adv-x="437" 
d="M247 175c7 1 13 -1 17 -5c25 -4 52 -4 77 3c20 5 35 17 54 13c10 -3 15 -8 18 -18c16 -62 -7 -59 -1 -135c-2 -28 -36 -29 -40 -1c-8 60 5 51 5 111l-17 -6c-5 -18 -16 -33 -28 -49c-54 -68 -134 -111 -217 -56c-61 40 -81 114 -94 181c-22 120 107 465 270 380
c58 -30 69 -124 83 -173c-2 -23 -29 -31 -39 -8c-9 33 -14 68 -28 99c-42 95 -118 47 -165 -11c-67 -84 -102 -222 -73 -328c11 -38 33 -84 68 -107c67 -43 127 0 166 52c2 3 4 6 5 9c-27 -3 -55 0 -74 13c-13 13 -9 29 7 36h6z" />
    <glyph glyph-name="less" unicode="&#x3c;" horiz-adv-x="231" 
d="M209 172c16 -20 -4 -39 -26 -31c-25 25 -50 49 -76 73c-29 26 -73 48 -86 87c-1 8 0 12 4 18c52 58 81 99 118 170c14 25 47 8 36 -17c-34 -65 -42 -87 -86 -140c-8 -10 -20 -18 -29 -29c50 -43 97 -86 145 -131z" />
    <glyph glyph-name="greater" unicode="&#x3e;" horiz-adv-x="235" 
d="M19 172c48 45 95 88 145 131c-9 11 -21 19 -29 29c-44 53 -52 75 -86 140c-11 25 22 42 36 17c37 -71 66 -112 118 -170c4 -6 5 -10 4 -18c-13 -39 -57 -61 -86 -87c-26 -24 -51 -48 -76 -73c-22 -8 -42 11 -26 31z" />
    <glyph glyph-name="colon" unicode=":" horiz-adv-x="121" 
d="M83 42c-2 -32 -50 -33 -55 -1v10c7 26 46 28 55 1v-10zM83 452c-2 -32 -50 -33 -55 -1v10c7 26 46 28 55 1v-10z" />
    <glyph glyph-name="semicolon" unicode=";" horiz-adv-x="129" 
d="M84 452c-2 -32 -50 -33 -55 -1v10c7 26 46 28 55 1v-10zM12 -45c-7 -24 17 -38 35 -21c19 29 40 57 61 85c10 26 -18 43 -35 21c-20 -28 -41 -56 -61 -85z" />
    <glyph glyph-name="plus" unicode="+" horiz-adv-x="267" 
d="M46 259c-28 4 -27 38 1 40c20 0 41 1 61 2c-1 34 -2 37 -2 71c5 23 33 25 40 1c0 -33 0 -35 1 -68l66 3c24 -7 22 -35 -1 -40l-63 -3c0 -25 1 -49 1 -73c-2 -28 -36 -29 -40 -1c0 23 -1 47 -1 71c-21 -2 -42 -3 -63 -3z" />
    <glyph glyph-name="equal" unicode="=" horiz-adv-x="212" 
d="M45 305c-28 4 -27 38 1 40h121c24 -7 22 -35 -1 -40h-121zM45 225c-28 4 -27 38 1 40h121c24 -7 22 -35 -1 -40h-121z" />
    <glyph glyph-name="A" unicode="A" horiz-adv-x="355" 
d="M77 35c-2 -28 -36 -29 -40 -1c-26 146 -12 308 49 450c9 21 17 44 31 61c25 29 57 71 104 64c99 -14 111 -254 112 -313c2 -86 -5 -174 -7 -261c-2 -28 -36 -29 -40 -1c1 67 6 134 7 201c-75 0 -150 -3 -225 -3c-3 -24 -4 -49 -3 -72c1 -42 11 -83 12 -125zM102 408
c-12 -43 -22 -90 -29 -136c74 0 147 3 220 3v20c-1 36 -3 86 -10 122c-10 60 -15 67 -35 115l-1 1l-3 7c0 1 -1 2 -1 3c-6 10 -14 24 -27 26c-27 5 -56 -32 -67 -49c-10 -16 -19 -33 -26 -51c-8 -20 -15 -40 -21 -61z" />
    <glyph glyph-name="asciicircum" unicode="^" horiz-adv-x="388" 
d="M345 422c-50 43 -97 85 -145 131c-10 -10 -17 -23 -26 -32c-48 -49 -69 -59 -131 -100c-23 -13 -44 18 -20 34c67 44 105 77 157 135c6 4 10 6 18 6c40 -9 66 -51 95 -77c26 -24 53 -46 80 -68c10 -21 -7 -43 -28 -29z" />
    <glyph glyph-name="percent" unicode="%" horiz-adv-x="328" 
d="M93 -42c-8 -27 -46 -15 -38 12l207 720c8 27 46 15 38 -12zM234 128c55 13 98 -64 37 -83c-3 -4 -7 -5 -14 -7c-48 -8 -79 77 -23 90zM54 558c55 13 98 -64 37 -83c-3 -4 -7 -5 -14 -7c-48 -8 -79 77 -23 90z" />
    <glyph glyph-name="backslash" unicode="\" horiz-adv-x="205" 
d="M-13 690l207 -720c8 -27 -30 -39 -38 -12l-207 720c-8 27 30 39 38 12z" />
    <glyph glyph-name="braceleft" unicode="{" horiz-adv-x="239" 
d="M176 60c27 -8 20 -43 -8 -39c-90 19 -89 90 -72 170c4 19 12 51 26 65c-23 14 -84 32 -89 61c-1 8 0 12 4 19c22 17 49 21 76 26c-12 74 -30 138 -16 214c6 27 42 23 39 -5c-9 -48 -6 -90 3 -138c5 -29 17 -59 13 -89c-3 -7 -5 -11 -12 -15c-15 -5 -33 -7 -50 -11
c2 -1 3 -2 5 -2c17 -8 34 -16 50 -27c28 -18 25 -35 8 -58c-16 -32 -51 -145 -2 -166c8 -3 17 -3 25 -5z" />
    <glyph glyph-name="braceright" unicode="}" horiz-adv-x="234" 
d="M54 60c8 2 17 2 25 5c49 21 14 134 -2 166c-17 23 -20 40 8 58c16 11 33 19 50 27c2 0 3 1 5 2c-17 4 -35 6 -50 11c-7 4 -9 8 -12 15c-4 30 8 60 13 89c9 48 12 90 3 138c-3 28 33 32 39 5c14 -76 -4 -140 -16 -214c27 -5 54 -9 76 -26c4 -7 5 -11 4 -19
c-5 -29 -66 -47 -89 -61c14 -14 22 -46 26 -65c17 -80 18 -151 -72 -170c-28 -4 -35 31 -8 39z" />
    <glyph glyph-name="bar" unicode="|" horiz-adv-x="129" 
d="M85 28c0 -28 -40 -28 -40 0l-4 579c0 28 40 28 40 0z" />
    <glyph glyph-name="numbersign" unicode="#" horiz-adv-x="364" 
d="M250 47c-2 -28 -36 -29 -40 -1c1 13 2 28 5 44l-101 -3c-2 -14 -3 -28 -4 -40c-2 -28 -36 -29 -40 -1c1 12 2 26 4 40h-25c-28 4 -27 38 1 40h31c2 13 5 27 8 40h-40c-28 4 -27 38 1 40h49c6 24 12 45 19 64c12 22 40 13 38 -11c-6 -15 -11 -33 -16 -52l100 4
c6 21 12 42 18 59c12 22 40 13 38 -11c-5 -14 -10 -30 -15 -48c11 0 23 1 36 1c24 -7 22 -35 -1 -40c-16 0 -31 0 -45 -1l-9 -40c17 1 35 1 55 1c24 -7 22 -35 -1 -40c-22 0 -42 -1 -61 -1zM130 167l-9 -40l100 3l9 40z" />
    <glyph glyph-name="hyphen" unicode="-" horiz-adv-x="267" 
d="M51 246c-28 4 -27 38 1 40c103 1 65 5 167 6c24 -7 22 -35 -1 -40c-103 -1 -64 -5 -167 -6z" />
    <glyph glyph-name="at" unicode="@" horiz-adv-x="453" 
d="M260 300c12 -4 17 -13 17 -22c6 -2 11 -7 13 -15h1v-3c6 -27 73 -132 95 -32c26 116 -160 202 -251 158c-94 -45 -85 -188 -44 -264c27 -49 40 -48 87 -75c22 -17 5 -45 -21 -35l-55 33c-58 37 -81 138 -80 200c0 22 6 44 9 65c6 39 49 103 90 113c50 12 77 20 125 8
c39 -9 75 -26 107 -50c23 -16 47 -38 59 -64c12 -22 16 -46 16 -71c2 -88 -83 -135 -139 -63c-33 -154 -287 51 -104 105c26 7 50 11 75 12zM253 245c-1 4 -2 9 -2 14c-44 -2 -113 -13 -78 -69c11 -17 41 -21 62 -21c-1 2 9 3 11 6c11 17 8 44 7 62v8z" />
    <glyph glyph-name="bracketleft" unicode="[" horiz-adv-x="206" 
d="M143 65c24 -8 21 -36 -3 -40c-96 0 -107 10 -113 110c-2 36 -3 138 -4 172c0 25 0 49 -1 73v67c1 18 1 37 0 55c2 88 47 65 110 82c22 20 51 -19 23 -34c-23 -8 -77 -7 -92 -21c-2 -97 -1 -235 1 -333c2 -31 3 -75 7 -108s47 -23 72 -23z" />
    <glyph glyph-name="bracketright" unicode="]" horiz-adv-x="226" 
d="M74 65c25 0 68 -10 72 23s5 77 7 108c2 98 3 236 1 333c-15 14 -69 13 -92 21c-28 15 1 54 23 34c63 -17 108 6 110 -82c-1 -18 -1 -37 0 -55v-67c-1 -24 -1 -48 -1 -73c-1 -34 -2 -136 -4 -172c-6 -100 -17 -110 -113 -110c-24 4 -27 32 -3 40z" />
    <glyph glyph-name="question" unicode="?" horiz-adv-x="291" 
d="M59 508c-1 -2 -2 -4 -2 -5c18 -12 10 -40 -15 -36c-38 8 -31 65 0 80c80 39 162 12 206 -65c43 -75 -1 -129 -63 -167c-13 -8 -67 -31 -63 -57c3 -19 11 -28 20 -42c6 -5 7 -5 14 -6c24 -7 22 -35 -1 -40c-50 4 -102 88 -60 129c30 29 67 42 98 68c16 13 33 30 31 53
c-4 54 -46 100 -99 106c-18 2 -55 1 -66 -18zM174 67c-2 -28 -36 -29 -40 -1v8c5 23 33 25 40 1v-8z" />
    <glyph glyph-name="asciitilde" unicode="~" horiz-adv-x="255" 
d="M31 300c24 10 37 -14 23 -33c-4 -2 -6 -7 -11 -7c-2 0 4 6 6 7c2 2 -2 -4 -2 -6l9 -18c9 -14 14 -19 26 -33h1c20 24 24 70 52 86c55 31 92 -53 95 -96c-2 -28 -36 -29 -40 -1c-2 26 -14 46 -33 62c-17 -24 -26 -78 -58 -90c-51 -19 -126 91 -68 129z" />
    <glyph glyph-name="underscore" unicode="_" horiz-adv-x="429" 
d="M40 33c-28 -1 -28 39 0 40l349 8c28 1 28 -39 0 -40z" />
    <glyph glyph-name="grave" unicode="`" 
 />
    <glyph glyph-name="H" unicode="H" horiz-adv-x="448" 
d="M63 25c0 -28 -40 -28 -40 0v562c0 28 40 28 40 0v-322c107 2 213 14 320 16v306c0 28 40 28 40 0v-562c0 -28 -40 -28 -40 0v216c-108 -2 -213 -14 -320 -16v-200z" />
  </font>
</defs>
</svg>
